<?xml version="1.0" encoding="UTF-8"?>
<svg id="visual" xmlns="http://www.w3.org/2000/svg" xmlns:xlink="http://www.w3.org/1999/xlink" viewBox="0 0 1014.57 2055.58">
  <defs>
    <style>
      .cls-1 {
        fill: none;
      }

      .cls-2 {
        clip-path: url(#clippath);
      }

      .cls-3 {
        fill: #031c38;
      }

      .cls-4 {
        fill: #030e1d;
      }

      .cls-5 {
        fill: #031124;
      }

      .cls-6 {
        fill: #022345;
      }

      .cls-7 {
        fill: #012a53;
      }

      .cls-8 {
        fill: #04152b;
      }

      .cls-9 {
        clip-path: url(#clippath-1);
      }

      .cls-10 {
        clip-path: url(#clippath-3);
      }

      .cls-11 {
        clip-path: url(#clippath-2);
      }
    </style>
    <clipPath id="clippath">
      <rect class="cls-1" x="22.76" y="53.57" width="965.59" height="1999.31"/>
    </clipPath>
    <clipPath id="clippath-1">
      <rect class="cls-1" x="46.58" y="1609.49" width="967.65" height="443.4" transform="translate(1060.81 3662.37) rotate(-180)"/>
    </clipPath>
    <clipPath id="clippath-2">
      <rect class="cls-1" width="974.54" height="161.05"/>
    </clipPath>
    <clipPath id="clippath-3">
      <rect class="cls-1" x="46.92" y="53.33" width="967.65" height="443.4" transform="translate(1061.48 550.05) rotate(180)"/>
    </clipPath>
  </defs>
  <g class="cls-2">
    <path class="cls-4" d="M22.76,2053.27v.1s0-25.7,0-25.7c0-25.6,0-77,0-128.3,0-51.3,0-102.7,0-154,0-51.3,0-102.7,0-153.8,0-51.2,0-102.2,0-153.4,0-51.1,0-102.5,0-153.8s0-102.7,0-154,0-102.7,0-154,0-102.7,0-154,0-102.7,0-153.8v-153.4c0-51.1,0-102.5,0-153.8s0-102.7,0-154,0-102.7,0-128.3v-25.7H487.76s10,25.7,10,25.7c10,25.6,30,77-15,128.3-45,51.3,17.1,138.1-37.9,189.4s52.6,53.9,57.6,105c5,51.2-83,138.5-30.5,189.7,52.5,51.1-34.2,79.5-16.7,130.8,17.5,51.3-42.5,102.7-80,154-37.5,51.3-52.5,102.7-50,154,2.5,51.3,22.5,102.7,0,154-22.5,51.3,1.9,115.1,4.4,166.2,2.5,51.2,4.93,74.82,42.43,126.02,37.5,51.1,77.37,124.18,52.37,175.48-25,51.3,11.2,101.2,23.7,152.5,12.5,51.3-55.5,97.5-15.5,123.1l40,25.7H22.76s0,0,0,0Z"/>
    <path class="cls-7" d="M815.68,2053.37l-20-25.7c-20-25.6-60-77-75-128.3-15-51.3-5-102.7,7.5-154,12.5-51.3,27.5-102.7,5-153.8-22.5-51.2-82.5-102.2-105-153.4-22.5-51.1-7.5-102.5-2.5-153.8,5-51.3,0-102.7,22.5-154,22.5-51.3,72.5-102.7,107.5-154,35-51.3,55-102.7,65-154s10-102.7,20-153.8c10-51.2,30-102.2,0-153.4-30-51.1-110-102.5-132.5-153.8-22.5-51.3,12.5-102.7,15-154,1.28-26.23,1.64-41.34,2.2-54.21,1.02-23.37,7-46.25,17.52-67.14l16.22-32.45h177.55s.23,31.15,.23,31.15c.03,4.62-.34,9.24-1.05,13.8-.79,5.05-1.33,9.6-1.58,13.31-5.31,77.9-34.22,86.69-31.82,136.07,2.5,51.3,24.21,62.17,44.21,113.47,20,51.3,20,102.7,20,153.8,0,51.2,0,102.2,0,153.4,0,51.1,0,102.5-22.5,153.8-22.5,51.3-67.5,102.7-77.5,154-10,51.3,15,102.7,32.5,154s27.5,102.7,20,154c-7.5,51.3-32.5,102.7-47.5,153.8-15,51.2-20,102.2-2.5,153.4,17.5,51.1,57.5,102.5,72.5,153.8,15,51.3,5,102.7,0,154-5,51.3-5,102.7-5,128.3v25.7h-121Z"/>
    <path class="cls-6" d="M710.16,2053.37l-15-25.7c-15-25.6-45-77-55-128.3-10-51.3,0-102.7,12.5-154,12.5-51.3,42.08-101.52,27.08-152.62-15-51.2-74.58-103.38-99.58-154.58-25-51.1-30-102.5-25-153.8,5-51.3,20-102.7,52.5-154,32.5-51.3,82.5-102.7,107.5-154,25-51.3,25-102.7,25-154s0-102.7,12.5-153.8c12.5-51.2,37.5-102.2,17.5-153.4-20-51.1-85-102.5-107.5-153.8-22.5-51.3,3.79-103.29-3.71-154.59s35.36-64.15,33.89-115.09l9.94-38.12h56.35s-16.22,32.45-16.22,32.45c-20.95,66.03,12.85,31.44,10.35,82.74s-67.09,141.31-44.59,192.62,102.5,102.7,132.5,153.8c30,51.2,10,102.2,0,153.4-10,51.1-10,102.5-20,153.8-10,51.3-30,102.7-65,154-35,51.3-85,102.7-107.5,154-22.5,51.3-17.5,102.7-22.5,154s-20,102.7,2.5,153.8c22.5,51.2,111.26,120.11,133.76,171.31,22.5,51.1-21.26,84.59-33.76,135.89-12.5,51.3-22.5,102.7-7.5,154,15,51.3,55,102.7,75,128.3l20,25.7h-106Z"/>
    <path class="cls-3" d="M635.92,2053.58l-12.5-25.7c-12.5-25.6-37.5-77-45-128.3-7.5-51.3,2.5-102.7,2.5-154,0-51.3,12.67-103.11,2.67-154.21-10-51.2-42.67-101.79-65.17-152.99-22.5-51.1-57.5-102.5-65-153.8-7.5-51.3-16.35-90.84,11.15-142.14s76.98-117.72,114.48-169.02,62.92-98.45,72.92-149.75,2.14-102.17-2.86-153.27c-5-51.2,.12-99.21-12.38-150.41-12.5-51.1-25.81-107.12-35.81-158.42-10-51.3-9.59-65.82-10.34-160.36-.41-51.54,50.47-120.4,56.22-147.44l11.71-.2,44.37-.06-9.27,38.39c3.52,47.12-42.15,63.59-34.65,114.89,7.5,51.3-17.03,103.49,5.47,154.79s87.5,102.7,107.5,153.8c20,51.2-5,102.2-17.5,153.4-12.5,51.1-12.5,102.5-12.5,153.8s0,102.7-25,154-75,102.7-107.5,154c-32.5,51.3-47.5,102.7-52.5,154-5,51.3,0,102.7,25,153.8,25,51.2,82.84,103.38,97.84,154.58,15,51.1-12.84,101.32-25.34,152.62-12.5,51.3-22.5,102.7-12.5,154,10,51.3,40,102.7,55,128.3l15,25.7h-76Z"/>
    <path class="cls-8" d="M574.68,2052.59l-7.5-25.7c-7.5-25.6-22.5-77-40-128.3s-37.5-102.7-45-154-2.5-102.7-10-153.8c-7.5-51.2-27.5-102.2-60-153.4-32.5-51.1-77.5-102.5-87.5-153.8-10-51.3-1.05-137.38,43.95-188.68,45-51.3,104.8-99.65,142.3-150.95,37.5-51.3,34.62-57.61,32.12-108.91-2.5-51.3-11.42-120.62-8.92-171.72,2.5-51.2,29.3-92.13,19.3-143.33-10-51.1-49.63-112.11-59.63-163.41s77.72-121.47,72.72-172.77c-4.17-42.75-7.98-44.14-26.99-68.13-14.14-17.84-36.55-41.92-34.77-54.38l.39-7.73,152.83,.34-1.43,17.61c-51.5,131.84-41.59,57.62-55.86,135.07-9.34,50.69-10,102.7,0,154,10,51.3,45,102.7,57.5,153.8,12.5,51.2,2.5,102.2,7.5,153.4,5,51.1,25,102.5,15,153.8-10,51.3-50,102.7-87.5,154-37.5,51.3-72.5,102.7-100,154s-47.5,102.7-40,154c7.5,51.3,42.5,102.7,65,153.8,28.94,46.93,75.26,103.67,69.17,157.34-.88,7.79-.98,15.66,0,23.44,5.65,44.8-6.68,79.4-6.68,126.42,0,51.3-10,102.7-2.5,154,7.5,51.3,32.5,102.7,45,128.3l12.5,25.7h-61Z"/>
    <path class="cls-5" d="M376.7,2047.28l10-25.7c10-25.6,30-77,25-128.3-5-51.3-35-102.7-47.5-154-12.5-51.3,33.06-82.83,10.56-133.93-22.5-51.2-113.06-122.07-150.56-173.27-37.5-51.1-62.5-102.5-62.5-153.8s25-102.7,60-154,80-102.7,102.5-154c22.5-51.3,22.5-102.7,37.5-154,15-51.3,45-102.7,47.5-153.8,2.5-51.2-22.5-102.2-45-153.4-22.5-51.1-42.5-102.5-22.5-153.8s102.05-117.53,104.15-168.85c2.65-64.69-42.28-75.62-48.72-133.59h0l67.35,.74c7.66,.03,32.07-.02,37.82,0l-1.36,10.23c.23,1.93,3.48,17.74,4.41,19.45,14.66,26.86,50.36,34.18,63.62,96.08,10.8,50.4-66.27,124.65-56.27,175.95,10,51.3,50,102.7,60,153.8,10,51.2-10,102.2-12.5,153.4-2.5,51.1,12.5,102.5,15,153.8s-7.5,102.7-45,154c-37.5,51.3-102.5,102.7-147.5,154-45,51.3-70,102.7-60,154,10,51.3,55,102.7,87.5,153.8,32.5,51.2,86.59,108.57,94.09,159.77,7.5,51.1-31.59,96.13-24.09,147.43,7.5,51.3,27.5,102.7,45,154,17.5,51.3,32.5,102.7,40,128.3l1.82,6.25c2.84,9.73-4.46,19.45-14.59,19.45h-175.73Z"/>
    <g class="cls-9">
      <path class="cls-4" d="M45.12,2053.3v.1s0-25.7,0-25.7c0-25.6,0-77,0-128.3s0-102.7,0-154c0-51.3,0-102.7,0-153.8,0-51.2,0-102.2,0-153.4,0-51.1,0-102.5,0-153.8,0-51.3,0-102.7,0-154,0-51.3,0-102.7,0-154,0-51.3,0-102.7,0-154,0-51.3,0-102.7,0-153.8,0-51.2,0-102.2,0-153.4,0-51.1,0-102.5,0-153.8s0-102.7,0-154c0-51.3,0-102.7,0-128.3v-25.7H510.12s10,25.7,10,25.7c10,25.6,30,77-15,128.3-45,51.3,17.1,138.1-37.9,189.4-55,51.3,52.6,53.9,57.6,105,5,51.2-83,138.5-30.5,189.7,52.5,51.1-34.2,79.5-16.7,130.8s-42.5,102.7-80,154c-37.5,51.3-52.5,102.7-50,154s22.5,102.7,0,154,1.9,115.1,4.4,166.2c2.5,51.2-16.9,89.8,20.6,141,37.5,51.1,99.2,109.2,74.2,160.5-25,51.3,11.2,101.2,23.7,152.5s-55.5,97.5-15.5,123.1l40,25.7H45.12s0,0,0,0Z"/>
      <path class="cls-7" d="M728.84,2052.28l-9.95-33.1c-20-25.6,8.87-69.79-6.13-121.09s-5-102.7,7.5-154,27.5-102.7,5-153.8c-22.5-51.2-82.5-102.2-105-153.4-22.5-51.1-7.5-102.5-2.5-153.8,5-51.3,0-102.7,22.5-154,22.5-51.3,72.5-102.7,107.5-154s55-102.7,65-154c10-51.3,10-102.7,20-153.8,10-51.2,30-102.2,0-153.4-30-51.1-110-102.5-132.5-153.8-22.5-51.3,12.5-102.7,15-154s-27.5-102.7-42.5-128.3l-15-25.7h286s-17.5,25.7-17.5,25.7c-17.5,25.6-52.5,77-50,128.3,2.5,51.3,42.5,102.7,62.5,154,20,51.3,20,102.7,20,153.8,0,51.2,0,102.2,0,153.4,0,51.1,0,102.5-22.5,153.8-22.5,51.3-67.5,102.7-77.5,154s15,102.7,32.5,154c17.5,51.3,27.5,102.7,20,154-7.5,51.3-32.5,102.7-47.5,153.8-15,51.2-20,102.2-2.5,153.4,17.5,51.1,57.5,102.5,72.5,153.8s5,102.7,0,154c-5,51.3-15.01,105.36-15.01,130.96l-.32,23.04-189.58,.19h0Z"/>
      <path class="cls-6" d="M716.66,2053.29h0c.55-16.36-3.39-32.55-11.35-46.86-15.45-27.8-35.07-67.45-42.79-107.03-10-51.3,0-102.7,12.5-154,12.5-51.3,27.5-102.7,12.5-153.8-15-51.2-60-102.2-85-153.4-25-51.1-30-102.5-25-153.8,5-51.3,20-102.7,52.5-154,32.5-51.3,82.5-102.7,107.5-154s25-102.7,25-154c0-51.3,0-102.7,12.5-153.8,12.5-51.2,37.5-102.2,17.5-153.4-20-51.1-85-102.5-107.5-153.8s-2.5-102.7-10-154-42.5-102.7-60-128.3l-17.5-25.7h91s15,25.7,15,25.7c15,25.6,45,77,42.5,128.3s-37.5,102.7-15,154c22.5,51.3,102.5,102.7,132.5,153.8,30,51.2,10,102.2,0,153.4-10,51.1-10,102.5-20,153.8s-30,102.7-65,154-85,102.7-107.5,154c-22.5,51.3-17.5,102.7-22.5,154-5,51.3-20,102.7,2.5,153.8,22.5,51.2,82.5,102.2,105,153.4,22.5,51.1,7.5,102.5-5,153.8-12.5,51.3-22.5,102.7-7.5,154s19.92,134.95,15.09,154.19h0l-41.95-.3h0Z"/>
      <path class="cls-3" d="M648.57,2055.4l-12.5-25.7c-12.5-25.6-37.5-77-45-128.3-7.5-51.3,2.5-102.7,2.5-154,0-51.3-10-102.7-20-153.8-10-51.2-20-102.2-42.5-153.4-22.5-51.1-57.5-102.5-65-153.8s12.5-102.7,40-154c27.5-51.3,62.5-102.7,100-154,37.5-51.3,77.5-102.7,87.5-154,10-51.3-10-102.7-15-153.8-5-51.2,5-102.2-7.5-153.4-12.5-51.1-47.5-102.5-57.5-153.8-10-51.3,5-102.7,0-154s-30-102.7-42.5-128.3l-12.04-24.75c-.21-.44,.11-.95,.59-.95h29.6c.22,0,.42,.11,.54,.29l17.3,25.41c17.5,25.6,52.5,77,60,128.3,7.5,51.3-12.5,102.7,10,154,22.5,51.3,87.5,102.7,107.5,153.8,20,51.2-5,102.2-17.5,153.4-12.5,51.1-12.5,102.5-12.5,153.8s0,102.7-25,154c-25,51.3-75,102.7-107.5,154s-47.5,102.7-52.5,154c-5,51.3,0,102.7,25,153.8,25,51.2,70,102.2,85,153.4,15,51.1,0,102.5-12.5,153.8-12.5,51.3-22.5,102.7-12.5,154,5.66,29.04,15.08,50.2,24.9,67.73,13.71,24.46,23.65,45.52,27.51,73.07,.43,3.1,.38,10.09-.03,13.2h0c.04,.39-.34,0-.74,0h-57.64Z"/>
      <path class="cls-8" d="M505.61,2053.37h0c-7.5-25.6,61.88-102.9,44.38-154.2s-37.5-102.7-45-154c-7.5-51.3-2.5-102.7-10-153.8-7.5-51.2-27.5-102.2-60-153.4-32.5-51.1-77.5-102.5-87.5-153.8-10-51.3,15-102.7,60-154,45-51.3,110-102.7,147.5-154s47.5-102.7,45-154c-2.5-51.3-17.5-102.7-15-153.8,2.5-51.2,22.5-102.2,12.5-153.4-10-51.1-50-102.5-60-153.8-10-51.3,10-102.7,5-154s-35-102.7-50-128.3l-15-25.7h91s12.5,25.7,12.5,25.7c12.5,25.6,37.5,77,42.5,128.3s-10,102.7,0,154,45,102.7,57.5,153.8c12.5,51.2,2.5,102.2,7.5,153.4,5,51.1,25,102.5,15,153.8-10,51.3-50,102.7-87.5,154s-72.5,102.7-100,154c-27.5,51.3-47.5,102.7-40,154,7.5,51.3,42.5,102.7,65,153.8,22.5,51.2,32.5,102.2,42.5,153.4,10,51.1,20,102.5,20,153.8s-10,102.7-2.5,154c7.11,48.64,39.47,110.36,53.46,138.45,1.4,2.82,2.38,5.81,2.91,8.92l1.13,6.63h-123.78s-29.1,.2-29.1,.2Z"/>
      <path class="cls-5" d="M423.86,2052.9l-.2-7.16c-.33-11.8,1.6-23.54,5.65-34.62,10.22-27.92,22.93-70.06,18.83-112.12-5-51.3-35-102.7-47.5-154s-7.5-102.7-30-153.8c-22.5-51.2-72.5-102.2-110-153.4-37.5-51.1-62.5-102.5-62.5-153.8,0-51.3,25-102.7,60-154,35-51.3,80-102.7,102.5-154,22.5-51.3,22.5-102.7,37.5-154,15-51.3,45-102.7,47.5-153.8,2.5-51.2-22.5-102.2-45-153.4-22.5-51.1-42.5-102.5-22.5-153.8s80-102.7,77.5-154-67.5-102.7-100-128.3l-32.5-25.7h166s15,25.7,15,25.7c15,25.6,45,77,50,128.3s-15,102.7-5,154c10,51.3,50,102.7,60,153.8,10,51.2-10,102.2-12.5,153.4-2.5,51.1,12.5,102.5,15,153.8s-7.5,102.7-45,154c-37.5,51.3-102.5,102.7-147.5,154-45,51.3-70,102.7-60,154,10,51.3,55,102.7,87.5,153.8,32.5,51.2,52.5,102.2,60,153.4,7.5,51.1,2.5,102.5,10,153.8,7.5,51.3,27.5,102.7,45,154,15.36,45.04-10.45,76.7-39.99,114.23-7.9,10.04-15.04,21.82-15.38,34.48-.02,.71-.07,1.43-.17,2.13l-.46,3.05-56.16-.24-25.63,.24Z"/>
    </g>
    <g class="cls-11">
      <path class="cls-4" d="M23.1,52.94H473s-40,25.7-40,25.7c-40,25.6,28,71.8,15.5,123.1-12.5,51.3-48.7,101.2-23.7,152.5,25,51.3-14.87,124.38-52.37,175.48-37.5,51.2-39.93,74.82-42.43,126.02-2.5,51.1-26.9,114.9-4.4,166.2,22.5,51.3,2.5,102.7,0,154-2.5,51.3,12.5,102.7,50,154,37.5,51.3,97.5,102.7,80,154-17.5,51.3,69.2,79.7,16.7,130.8-52.5,51.2,35.5,138.5,30.5,189.7-5,51.1-112.6,53.7-57.6,105,55,51.3-7.1,138.1,37.9,189.4,45,51.3,25,102.7,15,128.3l-10,25.7H23.1s0-25.7,0-25.7c0-25.6,0-77,0-128.3s0-102.7,0-154,0-102.7,0-153.8v-153.4c0-51.1,0-102.5,0-153.8s0-102.7,0-154,0-102.7,0-154,0-102.7,0-154,0-102.7,0-153.8c0-51.2,0-102.2,0-153.4,0-51.1,0-102.5,0-153.8,0-51.3,0-102.7,0-154,0-51.3,0-102.7,0-128.3v-25.7s0,.1,0,.1h0Z"/>
      <path class="cls-7" d="M816.02,52.84h121s0,25.7,0,25.7c0,25.6-24.13,91.78-19.13,143.08,5,51.3,39.13,87.92,24.13,139.22-15,51.3-55,102.7-72.5,153.8-17.5,51.2-12.5,102.2,2.5,153.4,15,51.1,40,102.5,47.5,153.8,7.5,51.3-2.5,102.7-20,154s-42.5,102.7-32.5,154c10,51.3,55,102.7,77.5,154,22.5,51.3,22.5,102.7,22.5,153.8,0,51.2,0,102.2,0,153.4,0,51.1,0,102.5-20,153.8-20,51.3-41.71,62.17-44.21,113.47-2.41,49.38,26.5,58.16,31.82,136.07,.25,3.72,.79,8.27,1.58,13.31,.72,4.57,1.09,9.18,1.05,13.8l-.23,31.15h-177.55s-16.22-32.45-16.22-32.45c-10.52-20.89-16.5-43.77-17.52-67.14-.56-12.87-.93-27.98-2.2-54.21-2.5-51.3-37.5-102.7-15-154s102.5-102.7,132.5-153.8c30-51.2,10-102.2,0-153.4-10-51.1-10-102.5-20-153.8s-30-102.7-65-154c-35-51.3-85-102.7-107.5-154-22.5-51.3-17.5-102.7-22.5-154-5-51.3-20-102.7,2.5-153.8,22.5-51.2,82.5-102.2,105-153.4,22.5-51.1,7.5-102.5-5-153.8-12.5-51.3-22.5-102.7-7.5-154,15-51.3,55-102.7,75-128.3l20-25.7h0Z"/>
      <path class="cls-6" d="M710.5,52.84h106s-20,25.7-20,25.7c-20,25.6-60,77-75,128.3-15,51.3-5,102.7,7.5,154,12.5,51.3,56.26,84.79,33.76,135.89-22.5,51.2-111.26,120.11-133.76,171.31-22.5,51.1-7.5,102.5-2.5,153.8s0,102.7,22.5,154c22.5,51.3,72.5,102.7,107.5,154,35,51.3,55,102.7,65,154,10,51.3,10,102.7,20,153.8,10,51.2,30,102.2,0,153.4-30,51.1-110,102.5-132.5,153.8s12.5,102.7,15,154-1.71,55.32,19.25,121.35l16.22,32.45h-56.35s-9.94-38.12-9.94-38.12c1.47-50.94-47.69-64.38-40.19-115.68,7.5-51.3-12.5-102.7,10-154,22.5-51.3,87.5-102.7,107.5-153.8,20-51.2-5-102.2-17.5-153.4-12.5-51.1-12.5-102.5-12.5-153.8s0-102.7-25-154-75-102.7-107.5-154c-32.5-51.3-47.5-102.7-52.5-154-5-51.3,0-102.7,25-153.8,25-51.2,84.58-103.38,99.58-154.58,15-51.1-14.58-101.32-27.08-152.62-12.5-51.3-22.5-102.7-12.5-154,10-51.3,40-102.7,55-128.3l15-25.7h0Z"/>
      <path class="cls-3" d="M636.26,52.63h76s-15,25.7-15,25.7c-15,25.6-45,77-55,128.3-10,51.3,0,102.7,12.5,154,12.5,51.3,40.34,101.52,25.34,152.62-15,51.2-72.84,103.38-97.84,154.58-25,51.1-30,102.5-25,153.8,5,51.3,20,102.7,52.5,154,32.5,51.3,82.5,102.7,107.5,154s25,102.7,25,154,0,102.7,12.5,153.8c12.5,51.2,37.5,102.2,17.5,153.4-20,51.1-85,102.5-107.5,153.8-22.5,51.3-2.5,102.7-10,154s42.71,68.56,39.19,115.68l9.27,38.39-44.37-.06-11.71-.2c-5.75-27.04-56.63-95.9-56.22-147.44,.74-94.54,.34-109.06,10.34-160.36s45-102.7,57.5-153.8c12.5-51.2,2.5-102.2,7.5-153.4,5-51.1,25-102.5,15-153.8-10-51.3-64.38-99.54-101.88-150.84-37.5-51.3-86.98-117.72-114.48-169.02s-18.65-90.84-11.15-142.14c7.5-51.3,42.5-102.7,65-153.8,22.5-51.2,55.17-101.79,65.17-152.99,10-51.1-2.67-102.91-2.67-154.21,0-51.3-10-102.7-2.5-154,7.5-51.3,32.5-102.7,45-128.3l12.5-25.7h0Z"/>
      <path class="cls-8" d="M575.02,53.62h61s-12.5,25.7-12.5,25.7c-12.5,25.6-37.5,77-45,128.3-7.5,51.3,2.5,102.7,2.5,154,0,47.03,12.32,81.62,6.68,126.42-.98,7.78-.89,15.65,0,23.44,6.09,53.67-40.23,110.41-69.17,157.34-22.5,51.1-57.5,102.5-65,153.8-7.5,51.3,12.5,102.7,40,154s62.5,102.7,100,154c37.5,51.3,77.5,102.7,87.5,154,10,51.3-10,102.7-15,153.8-5,51.2,5,102.2-7.5,153.4-12.5,51.1-47.5,102.5-57.5,153.8s5,102.7,0,154,57.92,76.18,55.86,135.07l1.43,17.61-152.83,.34-.39-7.73c-1.77-12.46-.71-19.87,1.92-34.27,5.5-30.1,8.86-68.27,13.02-111.02,5-51.3-15-102.7-5-154s50-102.7,60-153.8c10-51.2-10-102.2-12.5-153.4-2.5-51.1,12.5-102.5,15-153.8,2.5-51.3-7.5-102.7-45-154-37.5-51.3-102.5-102.7-147.5-154-45-51.3-70-102.7-60-154,10-51.3,55-102.7,87.5-153.8,32.5-51.2,52.5-102.2,60-153.4,7.5-51.1,2.5-102.5,10-153.8s27.5-102.7,45-154,32.5-102.7,40-128.3l7.5-25.7h0Z"/>
      <path class="cls-5" d="M380.5,52.84h175.73c10.13,0,17.43,9.73,14.59,19.45l-1.82,6.25c-7.5,25.6-22.5,77-40,128.3-17.5,51.3-37.5,102.7-45,154-7.5,51.3,31.59,96.33,24.09,147.43-7.5,51.2-61.59,108.57-94.09,159.77-32.5,51.1-77.5,102.5-87.5,153.8-10,51.3,15,102.7,60,154,45,51.3,110,102.7,147.5,154s47.5,102.7,45,154-17.5,102.7-15,153.8c2.5,51.2,22.5,102.2,12.5,153.4-10,51.1-50,102.5-60,153.8-10,51.3,10,102.7,5,154-4.84,49.69,2.32,91.17-12.34,118.03-.93,1.71-4.18,17.51-4.41,19.45l1.21,16.32c-5.75,.02-29.57-.22-37.24-.18l-68.37-.06h0c6.44-57.98,20.16-102.26,22.66-153.56s-57.5-102.7-77.5-154,0-102.7,22.5-153.8c22.5-51.2,47.5-102.2,45-153.4-2.5-51.1-32.5-102.5-47.5-153.8-15-51.3-15-102.7-37.5-154-22.5-51.3-67.5-102.7-102.5-154s-60-102.7-60-154,25-102.7,62.5-153.8c37.5-51.2,128.06-122.07,150.56-173.27,22.5-51.1-23.06-82.63-10.56-133.93,12.5-51.3,42.5-102.7,47.5-154,5-51.3-15-102.7-25-128.3l-10-25.7h0Z"/>
      <g class="cls-10">
        <path class="cls-4" d="M45.46,52.91H495.36s-40,25.7-40,25.7c-40,25.6,28,71.8,15.5,123.1s-48.7,101.2-23.7,152.5c25,51.3-36.7,109.4-74.2,160.5-37.5,51.2-18.1,89.8-20.6,141-2.5,51.1-26.9,114.9-4.4,166.2s2.5,102.7,0,154,12.5,102.7,50,154c37.5,51.3,97.5,102.7,80,154s69.2,79.7,16.7,130.8c-52.5,51.2,35.5,138.5,30.5,189.7-5,51.1-112.6,53.7-57.6,105,55,51.3-7.1,138.1,37.9,189.4,45,51.3,25,102.7,15,128.3l-10,25.7H45.46s0-25.7,0-25.7c0-25.6,0-77,0-128.3,0-51.3,0-102.7,0-154s0-102.7,0-153.8c0-51.2,0-102.2,0-153.4,0-51.1,0-102.5,0-153.8,0-51.3,0-102.7,0-154,0-51.3,0-102.7,0-154,0-51.3,0-102.7,0-154,0-51.3,0-102.7,0-153.8,0-51.2,0-102.2,0-153.4,0-51.1,0-102.5,0-153.8,0-51.3,0-102.7,0-154s0-102.7,0-128.3v-25.7s0,.1,0,.1h0Z"/>
        <path class="cls-7" d="M729.18,53.93l189.58,.19,.32,23.04c0,25.6-6.95,85.17-1.95,136.47,5,51.3,31.96,97.19,16.96,148.49s-55,102.7-72.5,153.8c-17.5,51.2-12.5,102.2,2.5,153.4,15,51.1,40,102.5,47.5,153.8,7.5,51.3-2.5,102.7-20,154-17.5,51.3-42.5,102.7-32.5,154s55,102.7,77.5,154c22.5,51.3,22.5,102.7,22.5,153.8,0,51.2,0,102.2,0,153.4,0,51.1,0,102.5-20,153.8-20,51.3-60,102.7-62.5,154-2.5,51.3,32.5,102.7,50,128.3l17.5,25.7h-286s15-25.7,15-25.7c15-25.6,45-77,42.5-128.3s-37.5-102.7-15-154c22.5-51.3,102.5-102.7,132.5-153.8,30-51.2,10-102.2,0-153.4-10-51.1-10-102.5-20-153.8-10-51.3-30-102.7-65-154s-85-102.7-107.5-154c-22.5-51.3-17.5-102.7-22.5-154-5-51.3-20-102.7,2.5-153.8,22.5-51.2,82.5-102.2,105-153.4,22.5-51.1,7.5-102.5-5-153.8s-22.5-102.7-7.5-154-13.87-95.49,6.13-121.09l9.95-33.1h0Z"/>
        <path class="cls-6" d="M717,52.92l41.95-.3h0c4.83,19.24-.09,102.89-15.09,154.19s-5,102.7,7.5,154c12.5,51.3,27.5,102.7,5,153.8-22.5,51.2-82.5,102.2-105,153.4-22.5,51.1-7.5,102.5-2.5,153.8,5,51.3,0,102.7,22.5,154,22.5,51.3,72.5,102.7,107.5,154s55,102.7,65,154,10,102.7,20,153.8c10,51.2,30,102.2,0,153.4-30,51.1-110,102.5-132.5,153.8-22.5,51.3,12.5,102.7,15,154s-27.5,102.7-42.5,128.3l-15,25.7h-91s17.5-25.7,17.5-25.7c17.5-25.6,52.5-77,60-128.3s-12.5-102.7,10-154,87.5-102.7,107.5-153.8c20-51.2-5-102.2-17.5-153.4-12.5-51.1-12.5-102.5-12.5-153.8,0-51.3,0-102.7-25-154s-75-102.7-107.5-154c-32.5-51.3-47.5-102.7-52.5-154-5-51.3,0-102.7,25-153.8,25-51.2,70-102.2,85-153.4,15-51.1,0-102.5-12.5-153.8-12.5-51.3-22.5-102.7-12.5-154,7.72-39.58,27.34-79.22,42.79-107.03,7.95-14.31,11.9-30.5,11.35-46.86h0Z"/>
        <path class="cls-3" d="M648.91,50.81h57.64c.39,0,.78-.39,.74,0h0c.4,3.11,.46,10.1,.03,13.2-3.86,27.54-13.8,48.6-27.51,73.07-9.83,17.53-19.24,38.69-24.9,67.73-10,51.3,0,102.7,12.5,154,12.5,51.3,27.5,102.7,12.5,153.8-15,51.2-60,102.2-85,153.4-25,51.1-30,102.5-25,153.8,5,51.3,20,102.7,52.5,154s82.5,102.7,107.5,154c25,51.3,25,102.7,25,154s0,102.7,12.5,153.8c12.5,51.2,37.5,102.2,17.5,153.4-20,51.1-85,102.5-107.5,153.8-22.5,51.3-2.5,102.7-10,154-7.5,51.3-42.5,102.7-60,128.3l-17.3,25.41c-.12,.18-.33,.29-.54,.29h-29.6c-.49,0-.81-.51-.59-.95l12.04-24.75c12.5-25.6,37.5-77,42.5-128.3s-10-102.7,0-154c10-51.3,45-102.7,57.5-153.8,12.5-51.2,2.5-102.2,7.5-153.4,5-51.1,25-102.5,15-153.8-10-51.3-50-102.7-87.5-154-37.5-51.3-72.5-102.7-100-154-27.5-51.3-47.5-102.7-40-154s42.5-102.7,65-153.8c22.5-51.2,32.5-102.2,42.5-153.4,10-51.1,20-102.5,20-153.8,0-51.3-10-102.7-2.5-154,7.5-51.3,32.5-102.7,45-128.3l12.5-25.7h0Z"/>
        <path class="cls-8" d="M535.05,53.04h123.78s-1.13,6.63-1.13,6.63c-.53,3.1-1.51,6.1-2.91,8.92-13.99,28.09-46.35,89.81-53.46,138.45-7.5,51.3,2.5,102.7,2.5,154s-10,102.7-20,153.8c-10,51.2-20,102.2-42.5,153.4-22.5,51.1-57.5,102.5-65,153.8-7.5,51.3,12.5,102.7,40,154,27.5,51.3,62.5,102.7,100,154s77.5,102.7,87.5,154c10,51.3-10,102.7-15,153.8-5,51.2,5,102.2-7.5,153.4-12.5,51.1-47.5,102.5-57.5,153.8-10,51.3,5,102.7,0,154-5,51.3-30,102.7-42.5,128.3l-12.5,25.7h-91s15-25.7,15-25.7c15-25.6,45-77,50-128.3,5-51.3-15-102.7-5-154s50-102.7,60-153.8c10-51.2-10-102.2-12.5-153.4-2.5-51.1,12.5-102.5,15-153.8,2.5-51.3-7.5-102.7-45-154s-102.5-102.7-147.5-154c-45-51.3-70-102.7-60-154,10-51.3,55-102.7,87.5-153.8,32.5-51.2,52.5-102.2,60-153.4,7.5-51.1,2.5-102.5,10-153.8,7.5-51.3,27.5-102.7,45-154s-51.88-128.6-44.38-154.2h0l29.1,.2Z"/>
        <path class="cls-5" d="M449.83,53.55l56.16-.24,.46,3.05c.11,.71,.15,1.42,.17,2.13,.34,12.66,7.48,24.45,15.38,34.48,29.54,37.54,55.35,69.2,39.99,114.23-17.5,51.3-37.5,102.7-45,154-7.5,51.3-2.5,102.7-10,153.8-7.5,51.2-27.5,102.2-60,153.4-32.5,51.1-77.5,102.5-87.5,153.8-10,51.3,15,102.7,60,154,45,51.3,110,102.7,147.5,154,37.5,51.3,47.5,102.7,45,154s-17.5,102.7-15,153.8c2.5,51.2,22.5,102.2,12.5,153.4-10,51.1-50,102.5-60,153.8-10,51.3,10,102.7,5,154s-35,102.7-50,128.3l-15,25.7h-166s32.5-25.7,32.5-25.7c32.5-25.6,97.5-77,100-128.3s-57.5-102.7-77.5-154,0-102.7,22.5-153.8c22.5-51.2,47.5-102.2,45-153.4-2.5-51.1-32.5-102.5-47.5-153.8-15-51.3-15-102.7-37.5-154-22.5-51.3-67.5-102.7-102.5-154-35-51.3-60-102.7-60-154,0-51.3,25-102.7,62.5-153.8,37.5-51.2,87.5-102.2,110-153.4,22.5-51.1,17.5-102.5,30-153.8s42.5-102.7,47.5-154c4.1-42.07-8.61-84.2-18.83-112.12-4.06-11.08-5.98-22.82-5.65-34.62l.2-7.16,25.63,.24Z"/>
      </g>
    </g>
  </g>
</svg>