<?xml version="1.0" encoding="UTF-8"?>
<svg id="visual" xmlns="http://www.w3.org/2000/svg" xmlns:xlink="http://www.w3.org/1999/xlink" viewBox="0 0 969.1 2003.41">
  <defs>
    <style>
      .cls-1 {
        fill: none;
      }

      .cls-2 {
        clip-path: url(#clippath);
      }

      .cls-3 {
        fill: #031c38;
      }

      .cls-4 {
        fill: #030e1d;
      }

      .cls-5 {
        fill: #031124;
      }

      .cls-6 {
        fill: #022345;
      }

      .cls-7 {
        fill: #012a53;
      }

      .cls-8 {
        fill: #04152b;
      }
    </style>
    <clipPath id="clippath">
      <rect class="cls-1" y="1557.32" width="967.65" height="443.4"/>
    </clipPath>
  </defs>
  <path class="cls-4" d="M966.99,2000.42h-449.9s40-25.7,40-25.7c40-25.6-28-71.8-15.5-123.1,12.5-51.3,48.7-101.2,23.7-152.5-25-51.3,36.7-109.4,74.2-160.5,37.5-51.2,18.1-89.8,20.6-141,2.5-51.1,26.9-114.9,4.4-166.2-22.5-51.3-2.5-102.7,0-154s-12.5-102.7-50-154-97.5-102.7-80-154c17.5-51.3-69.2-79.7-16.7-130.8,52.5-51.2-35.5-138.5-30.5-189.7,5-51.1,112.6-53.7,57.6-105s7.1-138.1-37.9-189.4c-45-51.3-25-102.7-15-128.3L501.99,.52h465s0,25.7,0,25.7V2000.42h0Z"/>
  <path class="cls-7" d="M174.59,2000.52H53.59v-25.7c0-25.6,0-77-5-128.3-5-51.3-15-102.7,0-154,15-51.3,55-102.7,72.5-153.8,17.5-51.2,12.5-102.2-2.5-153.4-15-51.1-40-102.5-47.5-153.8-7.5-51.3,2.5-102.7,20-154s42.5-102.7,32.5-154c-10-51.3-55-102.7-77.5-154-22.5-51.3-22.5-102.7-22.5-153.8s0-102.2,0-153.4c0-51.1,0-102.5,20-153.8,20-51.3,41.71-62.17,44.21-113.47,2.5-51.3-22.75-65.27-23.25-151.64l.82-42.89,189.58,.19,6.83,61.11c3.79,32.62,2.8,41.41,5.3,92.71s37.5,102.7,15,154c-22.5,51.3-102.5,102.7-132.5,153.8-30,51.2-10,102.2,0,153.4,10,51.1,10,102.5,20,153.8s30,102.7,65,154c35,51.3,85,102.7,107.5,154,22.5,51.3,17.5,102.7,22.5,154,5,51.3,20,102.7-2.5,153.8-22.5,51.2-82.5,102.2-105,153.4-22.5,51.1-7.5,102.5,5,153.8,12.5,51.3,22.5,102.7,7.5,154-15,51.3-55,102.7-75,128.3l-20,25.7h0Z"/>
  <path class="cls-6" d="M279.59,2000.52h-106l20-25.7c20-25.6,60-77,75-128.3s5-102.7-7.5-154c-12.5-51.3-27.5-102.7-5-153.8,22.5-51.2,82.5-102.2,105-153.4,22.5-51.1,7.5-102.5,2.5-153.8-5-51.3,0-102.7-22.5-154-22.5-51.3-72.5-102.7-107.5-154-35-51.3-55-102.7-65-154-10-51.3-10-102.7-20-153.8-10-51.2-30-102.2,0-153.4,30-51.1,110-102.5,132.5-153.8,22.5-51.3-12.5-102.7-15-154s-1.02-59.84-7.75-123.53l-3.38-30.28,41.95-.3V38.84c-1.47,50.94,47.68,64.38,40.18,115.68s12.5,102.7-10,154c-22.5,51.3-87.5,102.7-107.5,153.8-20,51.2,5,102.2,17.5,153.4,12.5,51.1,12.5,102.5,12.5,153.8s0,102.7,25,154,75,102.7,107.5,154c32.5,51.3,47.5,102.7,52.5,154,5,51.3,0,102.7-25,153.8-25,51.2-70,102.2-85,153.4-15,51.1,0,102.5,12.5,153.8,12.5,51.3,22.5,102.7,12.5,154-10,51.3-40,102.7-55,128.3l-15,25.7h0Z"/>
  <path class="cls-3" d="M353.85,2000.52h-76l15-25.7c15-25.6,45-77,55-128.3,10-51.3,0-102.7-12.5-154-12.5-51.3-27.5-102.7-12.5-153.8,15-51.2,60-102.2,85-153.4,25-51.1,30-102.5,25-153.8-5-51.3-20-102.7-52.5-154-32.5-51.3-82.5-102.7-107.5-154s-25-102.7-25-154,0-102.7-12.5-153.8c-12.5-51.2-37.5-102.2-17.5-153.4,20-51.1,85-102.5,107.5-153.8,22.5-51.3,2.5-102.7,10-154,7.5-51.3-42.71-68.56-39.19-115.68l.74-38.43,146.95,.11-12.5,25.7c-12.5,25.6-37.5,77-42.5,128.3s10,102.7,0,154c-10,51.3-45,102.7-57.5,153.8-12.5,51.2-2.5,102.2-7.5,153.4-5,51.1-25,102.5-15,153.8s64.38,99.54,101.88,150.84,86.98,117.72,114.48,169.02c27.5,51.3,18.65,90.84,11.15,142.14-7.5,51.3-42.5,102.7-65,153.8-22.5,51.2-32.5,102.2-42.5,153.4-10,51.1-20,102.5-20,153.8s10,102.7,2.5,154c-7.5,51.3-32.5,102.7-45,128.3l-12.5,25.7h0Z"/>
  <path class="cls-8" d="M414.59,1999.73h-61s12.5-25.7,12.5-25.7c12.5-25.6,37.5-77,45-128.3s-2.5-102.7-2.5-154,5.31-78.5,15.31-129.6c10-51.2,16.28-127.47,47.19-177.6,22.5-51.1,57.5-102.5,65-153.8,7.5-51.3-12.5-102.7-40-154s-62.5-102.7-100-154c-37.5-51.3-77.5-102.7-87.5-154-10-51.3,10-102.7,15-153.8,5-51.2-5-102.2,7.5-153.4,12.5-51.1,47.5-102.5,57.5-153.8,10-51.3-5-102.7,0-154s-39.59-65.49-37.53-124.38l4.23-29.35,152.68,.17-.29,3.73c-.96,12.58-4.02,24.93-9.21,36.42-12.6,27.88-24.71,70.66-28.87,113.41-5,51.3,15,102.7,5,154s-50,102.7-60,153.8c-10,51.2,10,102.2,12.5,153.4,2.5,51.1-12.5,102.5-15,153.8s7.5,102.7,45,154,102.5,102.7,147.5,154,70,102.7,60,154-55,102.7-87.5,153.8c-32.5,51.2-52.5,102.2-60,153.4-7.5,51.1-2.5,102.5-10,153.8-7.5,51.3-27.5,102.7-45,154s-32.5,102.7-40,128.3l-7.5,25.7h0Z"/>
  <path class="cls-5" d="M609.59,2000.52h-175.73c-10.13,0-17.43-9.73-14.59-19.45l1.82-6.25c7.5-25.6,22.5-77,40-128.3s37.5-102.7,45-154c7.5-51.3-6.2-102.76,1.3-153.86,7.5-51.2,36.2-102.14,68.7-153.34,32.5-51.1,77.5-102.5,87.5-153.8,10-51.3-15-102.7-60-154-45-51.3-110-102.7-147.5-154-37.5-51.3-47.5-102.7-45-154s17.5-102.7,15-153.8c-2.5-51.2-22.5-102.2-12.5-153.4,10-51.1,50-102.5,60-153.8,10-51.3-10-102.7-5-154s17.38-100,32.05-126.86c.93-1.71,5.48-11.44,5.72-13.38l1.61-13.32,13.41-.06,68.37,.06h0c-6.44,57.98-20.16,102.26-22.66,153.56s57.5,102.7,77.5,154c20,51.3,0,102.7-22.5,153.8-22.5,51.2-47.5,102.2-45,153.4,2.5,51.1,32.5,102.5,47.5,153.8,15,51.3,15,102.7,37.5,154,22.5,51.3,67.5,102.7,102.5,154s60,102.7,60,154-25,102.7-62.5,153.8c-37.5,51.2-96.21,101.88-118.71,153.08-22.5,51.1-8.79,102.82-21.29,154.12-12.5,51.3-42.5,102.7-47.5,154-5,51.3,15,102.7,25,128.3l10,25.7h0Z"/>
  <g class="cls-2">
    <path class="cls-4" d="M969.1,2001.13h-449.9l40-25.7c40-25.6-28-71.8-15.5-123.1s48.7-101.2,23.7-152.5c-25-51.3,36.7-109.4,74.2-160.5,37.5-51.2,18.1-89.8,20.6-141,2.5-51.1,26.9-114.9,4.4-166.2-22.5-51.3-2.5-102.7,0-154s-12.5-102.7-50-154c-37.5-51.3-97.5-102.7-80-154s-69.2-79.7-16.7-130.8c52.5-51.2-35.5-138.5-30.5-189.7,5-51.1,112.6-53.7,57.6-105-55-51.3,7.1-138.1-37.9-189.4-45-51.3-25-102.7-15-128.3l10-25.7h465V26.93c0,25.6,0,77,0,128.3V463.03c0,51.2,0,102.2,0,153.4,0,51.1,0,102.5,0,153.8,0,51.3,0,102.7,0,154,0,51.3,0,102.7,0,154,0,51.3,0,102.7,0,154,0,51.3,0,102.7,0,153.8,0,51.2,0,102.2,0,153.4v153.8c0,51.3,0,102.7,0,154,0,51.3,0,102.7,0,128.3v25.6h0Z"/>
    <path class="cls-7" d="M255.62,2001.42l-189.58-.19-.32-23.04c0-25.6-10.01-79.66-15.01-130.96-5-51.3-15-102.7,0-154s55-102.7,72.5-153.8c17.5-51.2,12.5-102.2-2.5-153.4-15-51.1-40-102.5-47.5-153.8-7.5-51.3,2.5-102.7,20-154,17.5-51.3,42.5-102.7,32.5-154-10-51.3-55-102.7-77.5-154-22.5-51.3-22.5-102.7-22.5-153.8,0-51.2,0-102.2,0-153.4s0-102.5,20-153.8c20-51.3,60-102.7,62.5-154,2.5-51.3-32.5-102.7-50-128.3L40.7,1.23H326.7l-15,25.7c-15,25.6-45,77-42.5,128.3s37.5,102.7,15,154-102.5,102.7-132.5,153.8c-30,51.2-10,102.2,0,153.4,10,51.1,10,102.5,20,153.8,10,51.3,30,102.7,65,154,35,51.3,85,102.7,107.5,154s17.5,102.7,22.5,154,20,102.7-2.5,153.8c-22.5,51.2-82.5,102.2-105,153.4-22.5,51.1-7.5,102.5,5,153.8,12.5,51.3,22.5,102.7,7.5,154s13.87,95.49-6.13,121.09l-9.95,33.1h0Z"/>
    <path class="cls-6" d="M297.57,2001.12l-41.95,.3h0c-4.83-19.24,.09-102.89,15.09-154.19s5-102.7-7.5-154-27.5-102.7-5-153.8c22.5-51.2,82.5-102.2,105-153.4,22.5-51.1,7.5-102.5,2.5-153.8s0-102.7-22.5-154-72.5-102.7-107.5-154c-35-51.3-55-102.7-65-154-10-51.3-10-102.7-20-153.8-10-51.2-30-102.2,0-153.4,30-51.1,110-102.5,132.5-153.8s-12.5-102.7-15-154,27.5-102.7,42.5-128.3l15-25.7h91l-17.5,25.7c-17.5,25.6-52.5,77-60,128.3s12.5,102.7-10,154-87.5,102.7-107.5,153.8c-20,51.2,5,102.2,17.5,153.4,12.5,51.1,12.5,102.5,12.5,153.8s0,102.7,25,154c25,51.3,75,102.7,107.5,154,32.5,51.3,47.5,102.7,52.5,154,5,51.3,0,102.7-25,153.8-25,51.2-70,102.2-85,153.4-15,51.1,0,102.5,12.5,153.8,12.5,51.3,22.5,102.7,12.5,154-7.72,39.58-27.34,79.22-42.79,107.03-7.95,14.31-11.9,30.5-11.35,46.86h0Z"/>
    <path class="cls-3" d="M365.65,2003.23h-57.64c-.39,0-.78,.39-.74,0h0c-.4-3.11-.46-10.1-.03-13.2,3.86-27.54,13.8-48.6,27.51-73.07,9.83-17.53,19.24-38.69,24.9-67.73,10-51.3,0-102.7-12.5-154-12.5-51.3-27.5-102.7-12.5-153.8,15-51.2,60-102.2,85-153.4,25-51.1,30-102.5,25-153.8s-20-102.7-52.5-154-82.5-102.7-107.5-154c-25-51.3-25-102.7-25-154s0-102.7-12.5-153.8c-12.5-51.2-37.5-102.2-17.5-153.4,20-51.1,85-102.5,107.5-153.8,22.5-51.3,2.5-102.7,10-154s42.5-102.7,60-128.3l17.3-25.41c.12-.18,.33-.29,.54-.29h29.6c.49,0,.81,.51,.59,.95l-12.04,24.75c-12.5,25.6-37.5,77-42.5,128.3s10,102.7,0,154c-10,51.3-45,102.7-57.5,153.8-12.5,51.2-2.5,102.2-7.5,153.4-5,51.1-25,102.5-15,153.8s50,102.7,87.5,154,72.5,102.7,100,154,47.5,102.7,40,154-42.5,102.7-65,153.8c-22.5,51.2-32.5,102.2-42.5,153.4-10,51.1-20,102.5-20,153.8,0,51.3,10,102.7,2.5,154s-32.5,102.7-45,128.3l-12.5,25.7h0Z"/>
    <path class="cls-8" d="M476.87,2000.99h-123.78s12.5-25.7,12.5-25.7c12.5-25.6,37.5-77,45-128.3,7.5-51.3-2.5-102.7-2.5-154s10-102.7,20-153.8c10-51.2,20-102.2,42.5-153.4,22.5-51.1,57.5-102.5,65-153.8,7.5-51.3-12.5-102.7-40-154-27.5-51.3-62.5-102.7-100-154s-77.5-102.7-87.5-154,10-102.7,15-153.8c5-51.2-5-102.2,7.5-153.4,12.5-51.1,47.5-102.5,57.5-153.8s-5-102.7,0-154,30-102.7,42.5-128.3L443.09,.99h91l-15,25.7c-15,25.6-45,77-50,128.3s15,102.7,5,154-50,102.7-60,153.8c-10,51.2,10,102.2,12.5,153.4,2.5,51.1-12.5,102.5-15,153.8s7.5,102.7,45,154c37.5,51.3,102.5,102.7,147.5,154,45,51.3,70,102.7,60,154-10,51.3-55,102.7-87.5,153.8-32.5,51.2-52.5,102.2-60,153.4-7.5,51.1-2.5,102.5-10,153.8-7.5,51.3-27.5,102.7-45,154s51.92,128.84,44.42,154.44l10.58-.54-39.72,.1Z"/>
    <path class="cls-5" d="M564.78,2001.43l-56.16,.24-.62-4.11c-1.97-12.98-7.27-25.24-15.39-35.56-29.54-37.54-55.35-69.2-39.99-114.23,17.5-51.3,37.5-102.7,45-154s2.5-102.7,10-153.8c7.5-51.2,27.5-102.2,60-153.4,32.5-51.1,77.5-102.5,87.5-153.8,10-51.3-15-102.7-60-154-45-51.3-110-102.7-147.5-154s-47.5-102.7-45-154,17.5-102.7,15-153.8c-2.5-51.2-22.5-102.2-12.5-153.4,10-51.1,50-102.5,60-153.8,10-51.3-10-102.7-5-154s35-102.7,50-128.3l15-25.7h166l-32.5,25.7c-32.5,25.6-97.5,77-100,128.3s57.5,102.7,77.5,154c20,51.3,0,102.7-22.5,153.8-22.5,51.2-47.5,102.2-45,153.4,2.5,51.1,32.5,102.5,47.5,153.8,15,51.3,15,102.7,37.5,154s67.5,102.7,102.5,154,60,102.7,60,154c0,51.3-25,102.7-62.5,153.8-37.5,51.2-87.5,102.2-110,153.4-22.5,51.1-17.5,102.5-30,153.8s-42.5,102.7-47.5,154c-4.1,42.07,8.61,84.2,18.83,112.12,4.06,11.08,5.98,22.82,5.65,34.62l-.2,7.16-25.63-.24Z"/>
  </g>
</svg>